<?xml version="1.0" encoding="utf-8"?>
<!-- Generator: Adobe Illustrator 15.1.0, SVG Export Plug-In . SVG Version: 6.00 Build 0)  -->
<!DOCTYPE svg PUBLIC "-//W3C//DTD SVG 1.1//EN" "http://www.w3.org/Graphics/SVG/1.1/DTD/svg11.dtd">
<svg version="1.1" id="Layer_1" xmlns="http://www.w3.org/2000/svg" xmlns:xlink="http://www.w3.org/1999/xlink" x="0px" y="0px"
	 width="232px" height="90px" viewBox="0 0 232 90" enable-background="new 0 0 232 90" xml:space="preserve">
<rect display="none" fill="#EE499A" width="231.773" height="90.371"/>
<g>
	<path fill="#F8F7FF" d="M57.695,48.512c-2.256,0.769-6.529,1.824-10.801,1.824c-5.904,0-10.177-1.488-13.153-4.32
		c-2.928-2.832-4.561-7.057-4.561-11.809c0.048-10.753,7.873-16.897,18.481-16.897c4.176,0,7.393,0.816,8.977,1.536l-1.536,5.905
		c-1.776-0.816-3.937-1.392-7.489-1.392c-6.097,0-10.753,3.408-10.753,10.465c0,6.72,4.224,10.609,10.225,10.609
		c1.632,0,2.976-0.192,3.552-0.433v-6.816h-4.993V31.47h12.049V48.512z"/>
	<path fill="#F8F7FF" d="M93.022,33.486c0,10.657-6.384,17.042-15.889,17.042c-9.553,0-15.217-7.249-15.217-16.514
		c0-9.697,6.241-16.945,15.745-16.945C87.598,17.069,93.022,24.51,93.022,33.486z M69.644,33.871c0,6.385,2.977,10.849,7.873,10.849
		c4.945,0,7.777-4.705,7.777-10.993c0-5.856-2.736-10.849-7.777-10.849C72.524,22.877,69.644,27.582,69.644,33.871z"/>
	<path fill="#F8F7FF" d="M97.82,50V17.645h8.544l6.721,11.857c1.92,3.408,3.792,7.44,5.28,11.089h0.096
		c-0.432-4.272-0.575-8.641-0.575-13.537v-9.409h6.72V50h-7.68l-6.913-12.481c-1.92-3.457-4.081-7.633-5.617-11.425h-0.192
		c0.24,4.32,0.336,8.881,0.336,14.162V50H97.82z"/>
	<path fill="#F8F7FF" d="M157.965,48.512c-2.256,0.769-6.528,1.824-10.801,1.824c-5.904,0-10.177-1.488-13.153-4.32
		c-2.928-2.832-4.561-7.057-4.561-11.809c0.049-10.753,7.873-16.897,18.482-16.897c4.176,0,7.393,0.816,8.977,1.536l-1.536,5.905
		c-1.776-0.816-3.937-1.392-7.489-1.392c-6.096,0-10.753,3.408-10.753,10.465c0,6.72,4.225,10.609,10.226,10.609
		c1.632,0,2.976-0.192,3.552-0.433v-6.816h-4.992V31.47h12.049V48.512z"/>
	<path fill="#F8F7FF" d="M163.722,17.645h19.73v6h-12.434v7.393h11.617v5.952h-11.617V50h-7.297V17.645z"/>
	<path fill="#F8F7FF" d="M196.267,17.645v18.578c0,5.616,2.16,8.449,5.856,8.449c3.841,0,5.953-2.688,5.953-8.449V17.645h7.296
		v18.146c0,9.984-5.04,14.737-13.489,14.737c-8.16,0-12.913-4.561-12.913-14.833v-18.05H196.267z"/>
</g>
<g>
	<path fill="#F02C24" d="M108.223,67.739l0.461,3.089c-3.84,1.213-7.881,2.454-10.537,3.205c-0.029,0.289-0.26,0.49-0.462,0.549
		l-1.501-3.869c1.212-0.26,2.743-0.635,4.417-1.039V58.213h-3.84v-3.292h11.289v3.292h-4.014v10.595L108.223,67.739z
		 M121.359,58.529l1.904,0.145c-0.316,2.859-0.115,16.283-1.848,18.535c-0.865,1.184-1.848,1.646-4.705,1.646
		c-0.664,0-1.357-0.029-2.05-0.058c-0.029-0.981-0.461-2.454-1.067-3.436c1.559,0.173,2.973,0.173,3.637,0.173
		c0.52,0,0.838-0.115,1.126-0.49c0.751-0.779,1.097-4.359,1.357-13.165h-4.735c-0.462,7.304-2.079,13.424-7.911,17.294
		c-0.548-0.925-1.646-2.166-2.54-2.801c5.081-3.205,6.496-8.142,6.929-14.493h-4.591v-3.32h4.706
		c0.058-1.963,0.058-4.042,0.058-6.236l4.388,0.202c-0.028,0.347-0.289,0.549-0.837,0.636c0,1.848-0.029,3.638-0.058,5.398h5.484
		L121.359,58.529z"/>
	<path fill="#F02C24" d="M151.965,67.537h-10.363c1.962,4.1,5.427,6.813,11.027,7.94c-0.837,0.808-1.935,2.453-2.453,3.521
		c-5.572-1.443-8.95-4.273-11.23-8.604c-1.675,3.609-4.966,6.784-11.434,8.719c-0.404-0.866-1.443-2.425-2.136-3.146
		c6.495-1.848,9.354-4.994,10.595-8.431h-10.018v-3.579h10.77c0.086-0.838,0.114-1.675,0.114-2.483v-2.193h-8.949V55.7h8.949v-3.868
		l4.504,0.26c-0.028,0.288-0.23,0.49-0.808,0.577V55.7h9.786v3.581h-9.786v2.223c0,0.809-0.029,1.646-0.088,2.454h11.52V67.537z"/>
</g>
</svg>
